<svg xmlns="http://www.w3.org/2000/svg" viewBox="0 0 1600 900" role="img" aria-labelledby="title desc"><title id="title">Ningbo culture and seafood itinerary</title><desc id="desc">An illustrated Ningbo scene with Tianyi Pavilion, Moon Lake, seafood, port cranes, old streets, and an international traveler.</desc><defs><linearGradient id="sky" x1="0" y1="0" x2="0" y2="1"><stop offset="0" stop-color="#5a91b0"/><stop offset="1" stop-color="#f1cd93"/></linearGradient><linearGradient id="water" x1="0" y1="0" x2="1" y2="1"><stop offset="0" stop-color="#5aa0aa"/><stop offset="1" stop-color="#315b72"/></linearGradient><filter id="s"><feDropShadow dx="0" dy="12" stdDeviation="15" flood-color="#2a4050" flood-opacity=".25"/></filter></defs><rect width="1600" height="900" fill="url(#sky)"/><circle cx="1285" cy="148" r="78" fill="#ffe2a2" opacity=".78"/><path d="M0 550 C230 510 430 568 660 532 C880 498 1080 562 1300 524 C1450 500 1530 514 1600 500 L1600 900 L0 900Z" fill="url(#water)"/><g transform="translate(220 420)" filter="url(#s)"><rect x="0" y="95" width="360" height="190" fill="#e3c59a"/><path d="M-22 95 H382 L310 30 H52Z" fill="#6b4f43"/><rect x="58" y="142" width="78" height="92" fill="#617f8f"/><rect x="220" y="142" width="78" height="92" fill="#617f8f"/></g><g transform="translate(930 390)" filter="url(#s)"><path d="M0 230 L90 40 L180 230" fill="none" stroke="#6d6d65" stroke-width="14"/><path d="M90 40 V250" stroke="#6d6d65" stroke-width="12"/><path d="M90 90 L230 145" stroke="#6d6d65" stroke-width="12"/><rect x="205" y="138" width="70" height="34" fill="#c96d4b"/></g><g transform="translate(1030 610)" filter="url(#s)"><rect x="0" y="66" width="270" height="112" rx="18" fill="#d49a60"/><circle cx="86" cy="62" r="42" fill="#fff1df"/><path d="M58 62 C72 40 96 40 112 62 C96 84 72 84 58 62Z" fill="#d06b52"/><circle cx="176" cy="62" r="42" fill="#fff1df"/><path d="M148 50 H204 L188 82 H164Z" fill="#c15d48"/></g></svg>
