<svg xmlns="http://www.w3.org/2000/svg" viewBox="0 0 1600 900" role="img" aria-labelledby="title desc">
  <title id="title">Dali Erhai Lake and Cangshan landscape</title>
  <desc id="desc">An illustrated Dali scene with Erhai Lake, Cangshan mountains, white-walled old-town buildings, bicycles, and an international visitor looking across the water.</desc>
  <defs>
    <linearGradient id="sky" x1="0" y1="0" x2="0" y2="1"><stop offset="0" stop-color="#79b4cd"/><stop offset="0.56" stop-color="#d8e4d3"/><stop offset="1" stop-color="#f3d5a6"/></linearGradient>
    <linearGradient id="lake" x1="0" y1="0" x2="1" y2="1"><stop offset="0" stop-color="#78bcc6"/><stop offset="1" stop-color="#24627a"/></linearGradient>
    <filter id="shadow" x="-20%" y="-20%" width="140%" height="140%"><feDropShadow dx="0" dy="12" stdDeviation="15" flood-color="#284b52" flood-opacity="0.25"/></filter>
  </defs>
  <rect width="1600" height="900" fill="url(#sky)"/>
  <circle cx="1266" cy="154" r="82" fill="#fff0c0" opacity="0.88"/>
  <path d="M0 474 L186 302 L278 416 L424 206 L590 434 L756 224 L930 452 L1092 278 L1280 442 L1434 256 L1600 434 L1600 620 L0 620 Z" fill="#648a83" opacity="0.68"/>
  <path d="M0 522 C206 490 382 534 576 502 C766 470 942 530 1140 488 C1322 450 1472 506 1600 474 L1600 900 L0 900 Z" fill="url(#lake)"/>
  <path d="M0 632 C202 594 390 650 588 614 C790 578 988 646 1188 604 C1360 568 1484 604 1600 580" fill="none" stroke="#e4e9d8" stroke-width="10" opacity="0.55"/>
  <path d="M0 742 C212 706 400 758 606 720 C812 682 998 754 1210 710 C1370 678 1494 712 1600 688" fill="none" stroke="#d9e8df" stroke-width="8" opacity="0.42"/>
  <g transform="translate(108 480)" filter="url(#shadow)"><path d="M0 156 L0 52 L78 0 L156 52 L156 156 Z" fill="#f3eee0"/><path d="M-16 56 L78 -8 L172 56" fill="none" stroke="#445f5f" stroke-width="18"/><rect x="60" y="98" width="36" height="58" fill="#4a6d71"/><rect x="20" y="82" width="28" height="30" fill="#c9d8ce"/><rect x="108" y="82" width="28" height="30" fill="#c9d8ce"/><path d="M184 168 L184 82 L252 34 L320 82 L320 168 Z" fill="#f3eee0"/><path d="M170 86 L252 26 L334 86" fill="none" stroke="#445f5f" stroke-width="16"/><rect x="236" y="114" width="32" height="54" fill="#4a6d71"/></g>
  <g transform="translate(622 638)" stroke="#3a5155" stroke-width="12" fill="none" filter="url(#shadow)"><circle cx="42" cy="86" r="34"/><circle cx="154" cy="86" r="34"/><path d="M42 86 L86 22 L126 86 L72 86 L112 42 M86 22 L130 22 M126 86 L154 86"/><path d="M92 18 L72 0"/></g>
  <path d="M0 810 C184 758 346 792 508 838 C680 884 852 784 1044 820 C1246 858 1418 798 1600 744 L1600 900 L0 900 Z" fill="#78936b"/>
  <g transform="translate(1120 594)" filter="url(#shadow)"><circle cx="76" cy="52" r="30" fill="#c9906d"/><path d="M44 52 C46 16 94 8 112 36 C92 28 66 32 44 52 Z" fill="#30413e"/><path d="M26 118 C52 88 100 88 128 118 L144 258 H10 Z" fill="#ece8d9"/><path d="M34 122 C56 136 98 136 120 122 L128 220 H26 Z" fill="#c36e4f"/><path d="M36 252 L24 318 M116 252 L130 318" stroke="#2e3b42" stroke-width="18" stroke-linecap="round"/><path d="M28 136 L-8 210 M128 136 L164 196" stroke="#c9906d" stroke-width="14" stroke-linecap="round"/><rect x="-28" y="182" width="48" height="76" rx="7" fill="#315a6e" transform="rotate(-18 -28 182)"/><circle cx="-2" cy="198" r="8" fill="#f1ce79"/></g>
</svg>
