<svg xmlns="http://www.w3.org/2000/svg" viewBox="0 0 1600 900" role="img" aria-labelledby="title desc"><title id="title">Jingdezhen porcelain travel guide</title><desc id="desc">An illustrated Jingdezhen scene with porcelain bowls, kiln arches, ceramic markets, blue-and-white patterns, and an international traveler.</desc><defs><linearGradient id="sky" x1="0" y1="0" x2="0" y2="1"><stop offset="0" stop-color="#5d88a8"/><stop offset="1" stop-color="#efd0a0"/></linearGradient><filter id="s"><feDropShadow dx="0" dy="12" stdDeviation="15" flood-color="#293b4a" flood-opacity=".25"/></filter></defs><rect width="1600" height="900" fill="url(#sky)"/><circle cx="1280" cy="150" r="78" fill="#ffe0a0" opacity=".78"/><path d="M0 580 C230 540 430 595 660 560 C880 525 1080 585 1300 550 C1450 525 1530 540 1600 525 L1600 900 L0 900Z" fill="#7a786f"/><g transform="translate(230 410)" filter="url(#s)"><path d="M0 245 L0 95 C75 18 180 18 255 95 L255 245Z" fill="#b98563"/><path d="M58 245 L58 128 C98 88 158 88 198 128 L198 245Z" fill="#4e3f38"/></g><g transform="translate(650 520)" filter="url(#s)"><ellipse cx="150" cy="120" rx="150" ry="62" fill="#f7f4e8"/><path d="M28 118 C74 190 226 190 272 118" fill="#e8edf2"/><path d="M74 110 C110 82 190 82 226 110" fill="none" stroke="#315f9a" stroke-width="12"/></g><g transform="translate(1030 500)" filter="url(#s)"><rect x="0" y="90" width="330" height="170" fill="#ead3ad"/><path d="M-20 90 H350 L290 35 H45Z" fill="#5f6f83"/><rect x="55" y="132" width="70" height="88" fill="#fff5e6"/><path d="M66 156 H114 M66 182 H114" stroke="#315f9a" stroke-width="8"/><rect x="205" y="132" width="70" height="88" fill="#fff5e6"/><path d="M216 156 H264 M216 182 H264" stroke="#315f9a" stroke-width="8"/></g></svg>
