<svg xmlns="http://www.w3.org/2000/svg" viewBox="0 0 1600 900" role="img" aria-labelledby="title desc"><title id="title">Qingdao coast and old town</title><desc id="desc">An illustrated Qingdao scene with red-roofed old town buildings, a beach, sailing boats, seafood, and a traveler looking toward Laoshan hills.</desc><defs><linearGradient id="sky" x1="0" y1="0" x2="0" y2="1"><stop offset="0" stop-color="#5c9fd0"/><stop offset="1" stop-color="#f4d6a0"/></linearGradient><linearGradient id="sea" x1="0" y1="0" x2="1" y2="1"><stop offset="0" stop-color="#3a8db5"/><stop offset="1" stop-color="#245a78"/></linearGradient><filter id="s"><feDropShadow dx="0" dy="12" stdDeviation="15" flood-color="#27415a" flood-opacity=".24"/></filter></defs><rect width="1600" height="900" fill="url(#sky)"/><circle cx="1260" cy="146" r="78" fill="#ffe2a6" opacity=".78"/><path d="M0 492 C220 420 430 500 640 450 C860 398 1080 480 1280 430 C1430 392 1530 410 1600 390 L1600 594 L0 594Z" fill="#557c71" opacity=".45"/><g transform="translate(150 360)" filter="url(#s)"><rect x="0" y="100" width="430" height="170" fill="#f0d3ad"/><path d="M-24 100 H454 L360 26 H70Z" fill="#b34f45"/><rect x="54" y="144" width="72" height="70" fill="#5e7f91"/><rect x="176" y="144" width="72" height="70" fill="#5e7f91"/><rect x="300" y="144" width="72" height="70" fill="#5e7f91"/></g><path d="M0 555 C230 518 420 575 650 538 C870 502 1060 568 1290 526 C1440 500 1530 520 1600 504 L1600 900 L0 900Z" fill="url(#sea)"/><path d="M0 726 C260 680 480 744 720 708 C950 674 1150 738 1380 700 C1490 682 1540 690 1600 680 L1600 900 L0 900Z" fill="#ead6aa"/><path d="M670 560 L760 400 L850 560 Z" fill="#fff4d8" filter="url(#s)"/><path d="M760 400 V602" stroke="#76594b" stroke-width="10"/><path d="M998 582 L1070 440 L1148 582 Z" fill="#fff4d8" filter="url(#s)"/><path d="M1070 440 V618" stroke="#76594b" stroke-width="10"/><g transform="translate(1050 640)" filter="url(#s)"><rect x="0" y="62" width="240" height="104" rx="16" fill="#d59b61"/><circle cx="72" cy="64" r="38" fill="#fff1df"/><path d="M48 64 C62 42 84 42 98 64 C84 86 62 86 48 64Z" fill="#d56a52"/><circle cx="154" cy="64" r="38" fill="#fff1df"/><path d="M130 48 H178 L166 84 H142Z" fill="#b95444"/></g></svg>
