<svg xmlns="http://www.w3.org/2000/svg" viewBox="0 0 1600 900" role="img" aria-labelledby="title desc"><title id="title">Wuyi Mountain tea and river scenery</title><desc id="desc">An illustrated Wuyi Mountain scene with Danxia cliffs, tea fields, bamboo rafts, river bends, and an international traveler.</desc><defs><linearGradient id="sky" x1="0" y1="0" x2="0" y2="1"><stop offset="0" stop-color="#5a96b2"/><stop offset="1" stop-color="#eecb8f"/></linearGradient><linearGradient id="river" x1="0" y1="0" x2="1" y2="1"><stop offset="0" stop-color="#579ba6"/><stop offset="1" stop-color="#2f5968"/></linearGradient><filter id="s"><feDropShadow dx="0" dy="12" stdDeviation="15" flood-color="#253d45" flood-opacity=".25"/></filter></defs><rect width="1600" height="900" fill="url(#sky)"/><circle cx="1280" cy="150" r="78" fill="#ffe0a0" opacity=".78"/><path d="M0 560 C230 518 430 575 660 538 C880 502 1080 568 1300 526 C1450 500 1530 520 1600 504 L1600 900 L0 900Z" fill="url(#river)"/><path d="M120 570 L300 270 L480 570Z" fill="#9a624b"/><path d="M460 570 L690 240 L920 570Z" fill="#8b5b49"/><path d="M900 570 L1120 285 L1350 570Z" fill="#7e5548"/><g transform="translate(260 660)" filter="url(#s)"><path d="M0 55 C145 20 290 20 435 55" fill="none" stroke="#c7a56d" stroke-width="24"/><path d="M0 55 C145 20 290 20 435 55" fill="none" stroke="#5e4d38" stroke-width="8"/></g><path d="M0 760 C260 710 500 770 760 730 C1010 690 1240 760 1600 700 L1600 900 L0 900Z" fill="#6f9b55"/><path d="M20 790 C260 735 500 800 760 760 C1010 720 1240 790 1580 735" fill="none" stroke="#315f42" stroke-width="12" opacity=".55"/></svg>
