<svg xmlns="http://www.w3.org/2000/svg" viewBox="0 0 1600 900" role="img" aria-labelledby="title desc"><title id="title">Wuhan two-day itinerary</title><desc id="desc">An illustrated Wuhan scene with Yellow Crane Tower, Yangtze River bridges, East Lake, hot dry noodles, and an international traveler.</desc><defs><linearGradient id="sky" x1="0" y1="0" x2="0" y2="1"><stop offset="0" stop-color="#527da6"/><stop offset="1" stop-color="#f0c487"/></linearGradient><linearGradient id="river" x1="0" y1="0" x2="1" y2="1"><stop offset="0" stop-color="#4d8fa0"/><stop offset="1" stop-color="#284f70"/></linearGradient><filter id="s"><feDropShadow dx="0" dy="12" stdDeviation="15" flood-color="#263f55" flood-opacity=".25"/></filter></defs><rect width="1600" height="900" fill="url(#sky)"/><circle cx="1290" cy="150" r="78" fill="#ffe0a0" opacity=".8"/><path d="M0 550 C230 508 420 570 650 532 C870 498 1070 560 1290 522 C1440 496 1530 512 1600 500 L1600 900 L0 900Z" fill="url(#river)"/><path d="M0 620 C280 560 520 640 800 585 C1060 535 1290 612 1600 560" fill="none" stroke="#d7d0bd" stroke-width="16" opacity=".8"/><path d="M0 648 C280 588 520 668 800 613 C1060 563 1290 640 1600 588" fill="none" stroke="#704f4f" stroke-width="6" opacity=".7"/><g transform="translate(240 310)" filter="url(#s)"><rect x="62" y="210" width="210" height="90" fill="#c68654"/><path d="M20 210 H315 L255 160 H78Z" fill="#d8a84d"/><rect x="95" y="105" width="145" height="105" fill="#c68654"/><path d="M65 105 H270 L228 60 H108Z" fill="#d8a84d"/><rect x="130" y="20" width="76" height="85" fill="#c68654"/><path d="M108 20 H228 L200 0 H136Z" fill="#d8a84d"/></g><g transform="translate(970 575)" filter="url(#s)"><rect x="0" y="82" width="320" height="120" rx="18" fill="#d49a60"/><circle cx="126" cy="74" r="58" fill="#fff1df"/><path d="M74 76 C110 42 150 42 184 76" fill="none" stroke="#c78b44" stroke-width="18" stroke-linecap="round"/><path d="M82 94 H176" stroke="#6a4938" stroke-width="10"/></g></svg>
